<svg width="8" height="8" viewBox="0 0 8 8" fill="none" xmlns="http://www.w3.org/2000/svg">
<path d="M7.06677 4.22361L3.99929 6.69263L0.937523 4.13217C0.879762 4.08413 0.813111 4.04795 0.741374 4.02569C0.669638 4.00342 0.594221 3.99552 0.51943 4.00242C0.444639 4.00932 0.371939 4.03089 0.30548 4.0659C0.239021 4.10091 0.180105 4.14867 0.132096 4.20647C0.0840864 4.26426 0.0479242 4.33094 0.0256737 4.40272C0.00342313 4.4745 -0.00448008 4.54995 0.00241554 4.62478C0.00931115 4.69961 0.0308705 4.77235 0.0658625 4.83885C0.100854 4.90534 0.148594 4.96429 0.206355 5.01233L3.63371 7.86998C3.73592 7.95405 3.86413 8 3.99644 8C4.12875 8 4.25695 7.95405 4.35916 7.86998L7.78652 5.10949C7.8452 5.06232 7.89398 5.00402 7.93007 4.93793C7.96616 4.87184 7.98883 4.79926 7.99679 4.72438C8.00476 4.64949 7.99785 4.57377 7.97647 4.50156C7.95509 4.42935 7.91965 4.36209 7.8722 4.30363C7.82465 4.24534 7.76607 4.19701 7.69981 4.16143C7.63355 4.12584 7.56093 4.1037 7.4861 4.09626C7.41126 4.08883 7.3357 4.09625 7.26374 4.11811C7.19179 4.13996 7.12485 4.17581 7.06677 4.22361Z" fill="#007AC3"/>
<path d="M3.63371 3.86998C3.73592 3.95405 3.86413 4 3.99644 4C4.12875 4 4.25695 3.95405 4.35917 3.86998L7.78652 1.10949C7.8452 1.06232 7.89398 1.00402 7.93007 0.93793C7.96616 0.87184 7.98883 0.799266 7.99679 0.724379C8.00476 0.649492 7.99785 0.573769 7.97647 0.501562C7.95509 0.429355 7.91965 0.362088 7.8722 0.303627C7.82506 0.244916 7.76679 0.196104 7.70074 0.159998C7.63468 0.123893 7.56215 0.101204 7.4873 0.0932377C7.41245 0.085271 7.33677 0.092183 7.2646 0.113576C7.19243 0.13497 7.1252 0.170423 7.06677 0.217898L3.99929 2.69263L0.937525 0.132168C0.820871 0.035157 0.670479 -0.0115153 0.519432 0.00241844C0.368385 0.0163522 0.229056 0.0897508 0.132097 0.206467C0.0351382 0.323183 -0.0115092 0.473656 0.00241714 0.624784C0.0163435 0.775912 0.0897028 0.915315 0.206357 1.01233L3.63371 3.86998Z" fill="#007AC3"/>
</svg>
