<svg width="16" height="16" viewBox="0 0 16 16" fill="#FFFFFF" xmlns="http://www.w3.org/2000/svg">
<path fill-rule="evenodd" clip-rule="evenodd" d="M13.4368 0.441261C14.02 -0.147086 14.9656 -0.147087 15.5488 0.441258C16.132 1.0296 16.132 1.9835 15.5488 2.57185L10.1047 8.06385L15.4183 13.4242C16.0015 14.0126 16.0015 14.9665 15.4183 15.5548C14.8351 16.1431 13.8895 16.1431 13.3063 15.5548L7.99267 10.1944L2.67993 15.5539C2.09671 16.1423 1.15113 16.1423 0.567916 15.5539C-0.0152999 14.9656 -0.0152995 14.0117 0.567915 13.4233L5.88066 8.06385L0.43741 2.57271C-0.145804 1.98436 -0.145803 1.03046 0.437412 0.442119C1.02063 -0.146226 1.96621 -0.146225 2.54942 0.442121L7.99267 5.93326L13.4368 0.441261Z" fill="#FFFFFF"/>
</svg>
