<svg width="88" height="20" viewBox="0 0 88 20" fill="none" xmlns="http://www.w3.org/2000/svg">
<path d="M0.227508 15.7964V20H13.3255C14.1055 20 14.7989 19.8139 15.4056 19.4417C16.0339 19.0476 16.5648 18.555 16.9981 17.9639C17.4315 17.3728 17.7673 16.7269 18.0056 16.0263C18.244 15.3038 18.3632 14.6141 18.3632 13.9573C18.3632 13.1473 18.2223 12.381 17.9407 11.6585C17.659 10.9141 17.2581 10.2682 16.7381 9.72087C16.2181 9.15161 15.6006 8.7028 14.8855 8.3744C14.1705 8.04599 13.3796 7.88178 12.513 7.88178H5.85021C5.72021 7.88178 5.57935 7.82706 5.4277 7.71758C5.29769 7.6081 5.16769 7.46582 5.03768 7.29065C4.92933 7.11549 4.83183 6.9294 4.74517 6.73236C4.68017 6.53531 4.64767 6.33827 4.64767 6.14122C4.64767 5.70333 4.75602 5.2764 4.97268 4.86043C5.18934 4.42254 5.4927 4.20362 5.88271 4.20362H18.1357V0H6.07772C5.21104 0 4.40931 0.153243 3.67263 0.459771C2.93595 0.766298 2.29675 1.19323 1.75506 1.74056C1.21338 2.28789 0.780028 2.94471 0.455017 3.71101C0.151671 4.45538 0 5.26548 0 6.14122C0 6.90752 0.130005 7.6519 0.390014 8.3744C0.650024 9.09689 1.01837 9.73183 1.49505 10.2792C1.99341 10.8265 2.58925 11.2644 3.28262 11.5928C3.97599 11.9212 4.75602 12.0854 5.6227 12.0854H12.1229C12.5996 12.0854 12.9788 12.2934 13.2605 12.7094C13.5421 13.1035 13.683 13.5414 13.683 14.023C13.683 14.2201 13.6288 14.4281 13.5205 14.647C13.4338 14.8659 13.3146 15.063 13.163 15.2381C13.033 15.3914 12.8705 15.5227 12.6755 15.6322C12.5021 15.7417 12.3179 15.7964 12.1229 15.7964H0.227508ZM19.8089 0V20H24.8792V0H19.8089ZM26.5405 0V20H31.5782V4.53203H38.5009C39.1944 4.53203 39.6494 4.69623 39.8659 5.02464C40.0825 5.33117 40.191 5.81282 40.191 6.46963V20H45.2936V5.68145C45.2936 4.93708 45.1852 4.2255 44.9686 3.5468C44.7521 2.84619 44.4161 2.23317 43.9611 1.70772C43.5061 1.18227 42.9211 0.766298 42.206 0.459771C41.491 0.153243 40.635 0 39.6384 0H33.2357L31.5782 2.10181V0H26.5405Z" fill="#0F56B2"/>
<path d="M46.5286 5.64861C46.5286 4.83855 46.6692 4.08322 46.9511 3.3826C47.2542 2.68198 47.6767 2.09085 48.2187 1.6092C48.7602 1.10563 49.3993 0.711536 50.1362 0.42693C50.8943 0.142324 51.7178 0 52.6063 0H60.5366C61.4466 0 62.2697 0.142324 63.0067 0.42693C63.7648 0.711536 64.4042 1.10563 64.9243 1.6092C65.4658 2.09085 65.8774 2.68198 66.1593 3.3826C66.4624 4.08322 66.6143 4.83855 66.6143 5.64861C66.6143 6.41491 66.4843 7.14833 66.2243 7.84894C65.9643 8.52764 65.6068 9.1407 65.1518 9.68803C65.5849 10.3448 65.9424 10.9579 66.2243 11.5271C66.5059 12.0744 66.6468 12.7313 66.6468 13.4976C66.6468 14.3076 66.5168 15.1068 66.2568 15.8949C65.9968 16.6612 65.6068 17.3509 65.0868 17.9639C64.5883 18.5769 63.9492 19.0695 63.1692 19.4417C62.4107 19.8139 61.5332 20 60.5366 20H52.6063C51.5878 20 50.6993 19.8139 49.9412 19.4417C49.1827 19.0695 48.5437 18.5769 48.0237 17.9639C47.5252 17.3509 47.1461 16.6612 46.8861 15.8949C46.6261 15.1068 46.4961 14.3076 46.4961 13.4976C46.4961 12.7313 46.6151 12.0744 46.8536 11.5271C47.1136 10.9579 47.4817 10.3448 47.9586 9.68803C47.0051 8.59332 46.5286 7.24685 46.5286 5.64861ZM61.9342 13.4647C61.9342 13.0268 61.7932 12.6109 61.5116 12.2168C61.2297 11.8008 60.8506 11.5709 60.3741 11.5271H52.7363C52.2378 11.5709 51.8478 11.8008 51.5663 12.2168C51.2843 12.6109 51.1438 13.0268 51.1438 13.4647C51.1438 13.6618 51.1763 13.8807 51.2413 14.1215C51.3063 14.3405 51.4038 14.5594 51.5338 14.7783C51.6638 14.9754 51.8153 15.1396 51.9888 15.271C52.1619 15.4023 52.3569 15.468 52.5738 15.468H60.5041C60.7206 15.468 60.9157 15.4023 61.0891 15.271C61.2622 15.1396 61.4141 14.9754 61.5441 14.7783C61.6741 14.5594 61.7717 14.3405 61.8367 14.1215C61.9017 13.8807 61.9342 13.6618 61.9342 13.4647ZM51.1438 5.64861C51.1438 6.0427 51.2738 6.39299 51.5338 6.69952C51.8153 7.00604 52.1838 7.18117 52.6388 7.22497H60.5041C60.9372 7.18117 61.2841 7.00604 61.5441 6.69952C61.8042 6.39299 61.9342 6.0427 61.9342 5.64861C61.9342 5.34209 61.8042 5.07936 61.5441 4.86043C61.2841 4.64151 60.9372 4.53203 60.5041 4.53203H52.5738C52.1403 4.53203 51.7938 4.64151 51.5338 4.86043C51.2738 5.07936 51.1438 5.34209 51.1438 5.64861ZM67.3826 5.64861C67.3826 4.83855 67.5235 4.08322 67.8051 3.3826C68.1086 2.68198 68.5311 2.09085 69.0726 1.6092C69.6142 1.10563 70.2536 0.711536 70.9902 0.42693C71.7487 0.142324 72.5718 0 73.4603 0H81.3906C82.3006 0 83.1241 0.142324 83.8607 0.42693C84.6192 0.711536 85.2582 1.10563 85.7782 1.6092C86.3198 2.09085 86.7318 2.68198 87.0133 3.3826C87.3168 4.08322 87.4683 4.83855 87.4683 5.64861C87.4683 6.41491 87.3383 7.14833 87.0783 7.84894C86.8183 8.52764 86.4608 9.1407 86.0057 9.68803C86.4392 10.3448 86.7967 10.9579 87.0783 11.5271C87.3598 12.0744 87.5008 12.7313 87.5008 13.4976C87.5008 14.3076 87.3708 15.1068 87.1108 15.8949C86.8508 16.6612 86.4608 17.3509 85.9407 17.9639C85.4423 18.5769 84.8032 19.0695 84.0232 19.4417C83.2647 19.8139 82.3871 20 81.3906 20H73.4603C72.4418 20 71.5537 19.8139 70.7952 19.4417C70.0367 19.0695 69.3976 18.5769 68.8776 17.9639C68.3791 17.3509 68.0001 16.6612 67.7401 15.8949C67.4801 15.1068 67.3501 14.3076 67.3501 13.4976C67.3501 12.7313 67.4691 12.0744 67.7076 11.5271C67.9676 10.9579 68.3361 10.3448 68.8126 9.68803C67.8591 8.59332 67.3826 7.24685 67.3826 5.64861ZM82.7881 13.4647C82.7881 13.0268 82.6472 12.6109 82.3656 12.2168C82.0841 11.8008 81.7046 11.5709 81.2281 11.5271H73.5903C73.0918 11.5709 72.7018 11.8008 72.4203 12.2168C72.1387 12.6109 71.9977 13.0268 71.9977 13.4647C71.9977 13.6618 72.0302 13.8807 72.0952 14.1215C72.1602 14.3405 72.2578 14.5594 72.3878 14.7783C72.5178 14.9754 72.6693 15.1396 72.8428 15.271C73.0162 15.4023 73.2113 15.468 73.4278 15.468H81.3581C81.5746 15.468 81.7696 15.4023 81.9431 15.271C82.1166 15.1396 82.2681 14.9754 82.3981 14.7783C82.5281 14.5594 82.6256 14.3405 82.6906 14.1215C82.7556 13.8807 82.7881 13.6618 82.7881 13.4647ZM71.9977 5.64861C71.9977 6.0427 72.1277 6.39299 72.3878 6.69952C72.6693 7.00604 73.0378 7.18117 73.4928 7.22497H81.3581C81.7916 7.18117 82.1381 7.00604 82.3981 6.69952C82.6581 6.39299 82.7881 6.0427 82.7881 5.64861C82.7881 5.34209 82.6581 5.07936 82.3981 4.86043C82.1381 4.64151 81.7916 4.53203 81.3581 4.53203H73.4278C72.9943 4.53203 72.6478 4.64151 72.3878 4.86043C72.1277 5.07936 71.9977 5.34209 71.9977 5.64861Z" fill="#DA1526"/>
</svg>
