<svg width="124" height="124" viewBox="0 0 124 124" fill="none" xmlns="http://www.w3.org/2000/svg">
<path d="M2.66093 5.3219C4.07975 5.3219 5.32186 4.07977 5.32186 2.66095C5.32186 2.04335 5.11917 1.45867 4.77443 0.996123C4.32574 0.395851 3.63799 0 2.83763 0C1.41882 0 0.176702 1.24212 0.176702 2.66095C0.176702 4.07977 1.41882 5.14433 2.66093 5.3219Z" fill="#36537B" fill-opacity="0.06"/>
<path d="M19.6902 5.3219C21.109 5.3219 22.3511 4.07977 22.3511 2.66095C22.3511 1.24212 21.109 0 19.6902 0C19.5828 0 19.4771 0.00692955 19.3749 0.0207887C18.9227 0.0814222 18.5156 0.269386 18.1709 0.545702C18.0462 0.645315 17.9301 0.756187 17.8227 0.876588C17.665 1.05329 17.5264 1.25165 17.4104 1.4656C17.2129 1.8294 17.0812 2.23738 17.0293 2.66095C17.0293 4.07977 18.2714 5.3219 19.6902 5.3219Z" fill="#36537B" fill-opacity="0.06"/>
<path d="M39.2037 2.66095C39.2037 4.07977 37.9616 5.3219 36.5427 5.3219C35.9659 5.3219 35.4184 5.11661 34.9715 4.77793C34.3201 4.28333 33.8818 3.50289 33.8818 2.66095C33.8818 1.24212 35.1239 0 36.5427 0C38.14 0 39.2037 1.24212 39.2037 2.66095Z" fill="#36537B" fill-opacity="0.06"/>
<path d="M56.2295 2.81513L56.2346 2.66095C56.2346 1.24212 54.9925 0 53.5737 0C52.1549 0 50.9128 1.24212 50.9128 2.66095C50.9128 4.07977 52.1549 5.3219 53.5737 5.3219C54.6339 5.3219 55.5971 4.62721 56.0146 3.68306C56.1065 3.47517 56.1723 3.25516 56.2069 3.02735L56.2191 2.939L56.2295 2.81513Z" fill="#36537B" fill-opacity="0.06"/>
<path d="M72.0374 4.87494C71.6181 5.15559 71.1227 5.3219 70.603 5.3219C69.1842 5.3219 67.942 4.07977 67.942 2.66095C67.942 1.24212 69.1842 0 70.603 0C72.0218 0 73.2639 1.24212 73.2639 2.66095C73.2639 3.56006 72.765 4.38814 72.0374 4.87494Z" fill="#36537B" fill-opacity="0.06"/>
<path d="M87.4555 5.3219C88.8743 5.3219 90.1165 4.07977 90.1165 2.66095C90.1165 1.24212 89.0528 0 87.4555 0C86.7522 0 86.0939 0.3049 85.6071 0.784772C85.491 0.899976 85.3836 1.02471 85.2883 1.1581C84.98 1.5912 84.7946 2.11351 84.7946 2.66095C84.7946 4.07977 86.0367 5.3219 87.4555 5.3219Z" fill="#36537B" fill-opacity="0.06"/>
<path d="M106.65 4.16813C106.158 4.85502 105.356 5.3219 104.487 5.3219C103.068 5.3219 101.826 4.07977 101.826 2.66095C101.826 2.06068 102.047 1.49245 102.411 1.03597C102.907 0.413175 103.667 0 104.487 0C105.905 0 107.147 1.24212 107.147 2.66095C107.147 2.96238 107.092 3.25516 106.99 3.52974C106.905 3.75668 106.791 3.9715 106.65 4.16813Z" fill="#36537B" fill-opacity="0.06"/>
<path d="M121.339 5.3219C122.758 5.3219 124 4.07977 124 2.66095C124 1.24212 122.936 0 121.339 0C119.92 0 118.678 1.24212 118.678 2.66095C118.678 4.07977 119.92 5.3219 121.339 5.3219Z" fill="#36537B" fill-opacity="0.06"/>
<path d="M5.32186 19.5136C5.32186 20.9324 4.07975 22.1746 2.66093 22.1746C1.41882 22.1746 0.176702 20.9324 0.176702 19.5136C0.176702 18.0948 1.41882 16.8527 2.83763 16.8527C4.25645 17.0302 5.32186 18.0948 5.32186 19.5136Z" fill="#36537B" fill-opacity="0.06"/>
<path d="M19.6902 22.1746C21.109 22.1746 22.3511 20.9324 22.3511 19.5136C22.3511 18.0948 21.109 17.0302 19.6902 16.8527C18.2714 16.8527 17.0293 18.0948 17.0293 19.5136C17.0293 20.3582 17.4693 21.1403 18.1258 21.6349C18.3718 21.8212 18.649 21.9667 18.9453 22.0594C19.1826 22.1339 19.4338 22.1746 19.6902 22.1746Z" fill="#36537B" fill-opacity="0.06"/>
<path d="M39.2037 19.5136C39.2037 19.9701 39.0755 20.4084 38.8537 20.7921C38.703 21.0537 38.509 21.2902 38.2838 21.4903C37.8091 21.9121 37.1958 22.1746 36.5427 22.1746C35.1239 22.1746 33.8818 20.9324 33.8818 19.5136C33.8818 18.0948 35.1239 16.8527 36.5427 16.8527C38.14 17.0302 39.2037 18.0948 39.2037 19.5136Z" fill="#36537B" fill-opacity="0.06"/>
<path d="M53.5737 22.1746C54.9925 22.1746 56.2346 20.9324 56.2346 19.5136C56.2346 18.0948 54.9925 17.0302 53.5737 16.8527C52.1549 16.8527 50.9128 18.0948 50.9128 19.5136C50.9128 20.3989 51.3961 21.2157 52.1047 21.7042C52.5308 21.9987 53.0401 22.1746 53.5737 22.1746Z" fill="#36537B" fill-opacity="0.06"/>
<path d="M71.93 21.7952L71.8486 21.8428C71.8 21.8705 71.7515 21.8965 71.6996 21.9208C71.3618 22.0827 70.9893 22.1746 70.603 22.1746L70.499 22.172L70.4211 22.1676C70.3518 22.1624 70.2825 22.1546 70.2132 22.1434C70.0711 22.1209 69.9325 22.0853 69.7974 22.0394C69.6311 21.9823 69.47 21.9086 69.3176 21.8203C68.5103 21.3525 67.942 20.4734 67.942 19.5136C67.942 18.0948 69.1842 16.8527 70.603 16.8527C72.0218 17.0302 73.2639 18.0948 73.2639 19.5136C73.2639 20.3625 72.8187 21.1481 72.1569 21.6427C72.0842 21.6973 72.0079 21.7484 71.93 21.7952Z" fill="#36537B" fill-opacity="0.06"/>
<path d="M87.4555 22.1746C88.8743 22.1746 90.1165 20.9324 90.1165 19.5136C90.1165 18.0948 89.0528 17.0302 87.4555 16.8527C86.0367 16.8527 84.7946 18.0948 84.7946 19.5136C84.7946 20.9324 86.0367 22.1746 87.4555 22.1746Z" fill="#36537B" fill-opacity="0.06"/>
<path d="M107.147 19.5136C107.147 20.9324 105.905 22.1746 104.487 22.1746C103.068 22.1746 101.826 20.9324 101.826 19.5136C101.826 18.9194 102.044 18.3555 102.401 17.9016C102.896 17.2719 103.662 16.8527 104.487 16.8527C105.905 17.0302 107.147 18.0948 107.147 19.5136Z" fill="#36537B" fill-opacity="0.06"/>
<path d="M121.339 22.1746C122.758 22.1746 124 20.9324 124 19.5136C124 18.0948 122.936 17.0302 121.339 16.8527C119.92 16.8527 118.678 18.0948 118.678 19.5136C118.678 20.0368 118.846 20.5357 119.13 20.9576C119.617 21.68 120.443 22.1746 121.339 22.1746Z" fill="#36537B" fill-opacity="0.06"/>
<path d="M5.32186 36.5439C5.32186 37.9627 4.07975 39.2048 2.66093 39.2048C1.41882 39.0272 0.176702 37.9627 0.176702 36.5439C0.176702 35.125 1.41882 33.8829 2.83763 33.8829C4.25645 33.8829 5.32186 35.125 5.32186 36.5439Z" fill="#36537B" fill-opacity="0.06"/>
<path d="M19.6902 39.2048C21.109 39.2048 22.3511 37.9627 22.3511 36.5439C22.3511 36.0389 22.1935 35.5564 21.9267 35.1441C21.4451 34.3983 20.6049 33.8829 19.6902 33.8829C18.2714 33.8829 17.0293 35.125 17.0293 36.5439C17.0293 37.9627 18.2714 39.2048 19.6902 39.2048Z" fill="#36537B" fill-opacity="0.06"/>
<path d="M38.3479 38.4607C37.8663 38.9172 37.2253 39.2048 36.5427 39.2048C36.0507 39.2048 35.5813 39.0558 35.1759 38.8012C34.8121 38.5733 34.502 38.2607 34.2768 37.896C34.0273 37.4949 33.8818 37.0298 33.8818 36.5439C33.8818 35.125 35.1239 33.8829 36.5427 33.8829C38.14 33.8829 39.2037 35.125 39.2037 36.5439C39.2037 37.2801 38.8693 37.9687 38.3479 38.4607Z" fill="#36537B" fill-opacity="0.06"/>
<path d="M53.5737 39.2048C54.9925 39.2048 56.2346 37.9627 56.2346 36.5439C56.2346 35.125 54.9925 33.8829 53.5737 33.8829C52.7578 33.8829 51.999 34.2952 51.5018 34.9154C51.1363 35.3719 50.9128 35.9419 50.9128 36.5439C50.9128 37.9627 52.1549 39.2048 53.5737 39.2048Z" fill="#36537B" fill-opacity="0.06"/>
<path d="M73.2639 36.5439C73.2639 37.9627 72.0218 39.2048 70.603 39.2048C70.1283 39.2048 69.6727 39.0653 69.2777 38.8271C68.4912 38.3533 67.942 37.488 67.942 36.5439C67.942 35.9419 68.1655 35.3719 68.5311 34.9154C69.0265 34.2952 69.7853 33.8829 70.603 33.8829C72.0218 33.8829 73.2639 35.125 73.2639 36.5439Z" fill="#36537B" fill-opacity="0.06"/>
<path d="M87.4555 39.2048C88.8743 39.2048 90.1165 37.9627 90.1165 36.5439C90.1165 35.125 89.0528 33.8829 87.4555 33.8829C86.7435 33.8829 86.0766 34.1956 85.588 34.6867C85.3819 34.8938 85.2086 35.132 85.077 35.3918C85.051 35.4447 85.025 35.4984 85.0025 35.5521L84.9401 35.7123C84.8674 35.9159 84.8206 36.129 84.8033 36.3481C84.7981 36.4131 84.7946 36.478 84.7946 36.5439C84.7946 37.9627 86.0367 39.2048 87.4555 39.2048Z" fill="#36537B" fill-opacity="0.06"/>
<path d="M107.147 36.5439C107.147 37.9627 105.905 39.2048 104.487 39.2048C103.068 39.2048 101.826 37.9627 101.826 36.5439C101.826 35.125 103.068 33.8829 104.487 33.8829C105.905 33.8829 107.147 35.125 107.147 36.5439Z" fill="#36537B" fill-opacity="0.06"/>
<path d="M121.339 39.2048C122.758 39.2048 124 37.9627 124 36.5439C124 35.125 122.936 33.8829 121.339 33.8829C119.92 33.8829 118.678 35.125 118.678 36.5439C118.678 37.9627 119.92 39.2048 121.339 39.2048Z" fill="#36537B" fill-opacity="0.06"/>
<path d="M5.32186 53.3965C5.32186 54.8154 4.07975 56.0575 2.66093 56.0575C1.24211 56.0575 0 54.8154 0 53.3965C0 51.9777 1.24211 50.7356 2.66093 50.7356C4.25818 50.9131 5.32186 51.9777 5.32186 53.3965Z" fill="#36537B" fill-opacity="0.06"/>
<path d="M19.6902 56.0575C21.109 56.0575 22.3511 54.8154 22.3511 53.3965C22.3511 51.9777 21.109 50.9131 19.6902 50.7356C18.2714 50.7356 17.0293 51.9777 17.0293 53.3965C17.0293 54.8154 18.2714 56.0575 19.6902 56.0575Z" fill="#36537B" fill-opacity="0.06"/>
<path d="M39.2037 53.3965C39.2037 54.8154 37.9616 56.0575 36.5427 56.0575C35.9468 56.0575 35.382 55.8383 34.9282 55.4797C34.7965 55.3758 34.6735 55.2597 34.5609 55.1341C34.4518 55.0102 34.3547 54.8769 34.2681 54.7357C34.0239 54.3372 33.8818 53.8773 33.8818 53.3965C33.8818 51.9777 35.1239 50.7356 36.5427 50.7356C38.14 50.9131 39.2037 51.9777 39.2037 53.3965Z" fill="#36537B" fill-opacity="0.06"/>
<path d="M53.5737 56.0575C54.9925 56.0575 56.2346 54.8154 56.2346 53.3965C56.2346 51.9777 54.9925 50.9131 53.5737 50.7356C52.1549 50.7356 50.9128 51.9777 50.9128 53.3965C50.9128 53.989 51.1293 54.5503 51.4845 55.0033C51.5746 55.1185 51.675 55.2268 51.7842 55.3281L51.9072 55.4364C52.0614 55.5655 52.2294 55.6772 52.4078 55.769C52.7647 55.9527 53.1614 56.0575 53.5737 56.0575Z" fill="#36537B" fill-opacity="0.06"/>
<path d="M73.2639 53.3965C73.2639 54.8154 72.0218 56.0575 70.603 56.0575C69.1842 56.0575 67.942 54.8154 67.942 53.3965C67.942 51.9777 69.1842 50.7356 70.603 50.7356C72.0218 50.9131 73.2639 51.9777 73.2639 53.3965Z" fill="#36537B" fill-opacity="0.06"/>
<path d="M87.4555 56.0575C88.8743 56.0575 90.1165 54.8154 90.1165 53.3965C90.1165 51.9777 89.0528 50.9131 87.4555 50.7356C86.2723 50.7356 85.2121 51.6 84.8933 52.7096C84.8292 52.9305 84.7946 53.1609 84.7946 53.3965C84.7946 54.8154 86.0367 56.0575 87.4555 56.0575Z" fill="#36537B" fill-opacity="0.06"/>
<path d="M107.147 53.3965C107.147 54.8154 105.905 56.0575 104.487 56.0575C103.61 56.0575 102.801 55.5837 102.311 54.8872C102.007 54.4559 101.826 53.9396 101.826 53.3965C101.826 51.9777 103.068 50.7356 104.487 50.7356C105.905 50.9131 107.147 51.9777 107.147 53.3965Z" fill="#36537B" fill-opacity="0.06"/>
<path d="M121.339 56.0575C122.758 56.0575 124 54.8154 124 53.3965C124 51.9777 122.936 50.9131 121.339 50.7356C119.92 50.7356 118.678 51.9777 118.678 53.3965C118.678 53.911 118.841 54.4022 119.118 54.8197C119.603 55.5533 120.435 56.0575 121.339 56.0575Z" fill="#36537B" fill-opacity="0.06"/>
<path d="M5.32186 70.4268C5.32186 71.8456 4.07975 73.0877 2.66093 73.0877C1.24211 73.0877 0 71.8456 0 70.4268C0 69.0079 1.24211 67.7658 2.66093 67.7658C4.25818 67.7658 5.32186 69.0079 5.32186 70.4268Z" fill="#36537B" fill-opacity="0.06"/>
<path d="M21.8539 71.9331C22.164 71.4982 22.3511 70.9759 22.3511 70.4268C22.3511 69.0079 21.109 67.7658 19.6902 67.7658C18.2714 67.7658 17.0293 69.0079 17.0293 70.4268C17.0293 71.8456 18.2714 73.0877 19.6902 73.0877C20.5598 73.0877 21.3619 72.6208 21.8539 71.9331Z" fill="#36537B" fill-opacity="0.06"/>
<path d="M39.2037 70.4268C39.2037 71.2237 38.8121 71.9651 38.2162 72.4623C37.7519 72.8495 37.1647 73.0877 36.5427 73.0877C35.1239 73.0877 33.8818 71.8456 33.8818 70.4268C33.8818 69.0079 35.1239 67.7658 36.5427 67.7658C38.14 67.7658 39.2037 69.0079 39.2037 70.4268Z" fill="#36537B" fill-opacity="0.06"/>
<path d="M53.5737 73.0877C54.9925 73.0877 56.2346 71.8456 56.2346 70.4268C56.2346 69.0079 54.9925 67.7658 53.5737 67.7658C52.1549 67.7658 50.9128 69.0079 50.9128 70.4268C50.9128 70.6918 50.9561 70.9517 51.0375 71.1977C51.067 71.2869 51.1016 71.3753 51.1397 71.461C51.1692 71.5286 51.2021 71.5953 51.2385 71.6611C51.3805 71.9201 51.5642 72.1557 51.7807 72.3575C52.0977 72.6529 52.4806 72.8755 52.8981 72.9933C53.1146 73.0548 53.3416 73.0877 53.5737 73.0877Z" fill="#36537B" fill-opacity="0.06"/>
<path d="M73.2639 70.4268C73.2639 71.8456 72.0218 73.0877 70.603 73.0877C69.1842 73.0877 67.942 71.8456 67.942 70.4268C67.942 69.0079 69.1842 67.7658 70.603 67.7658C72.0218 67.7658 73.2639 69.0079 73.2639 70.4268Z" fill="#36537B" fill-opacity="0.06"/>
<path d="M87.4555 73.0877C88.8743 73.0877 90.1165 71.8456 90.1165 70.4268C90.1165 69.0079 89.0528 67.7658 87.4555 67.7658C86.7556 67.7658 86.0973 68.069 85.6123 68.5463C85.1134 69.0357 84.7946 69.7087 84.7946 70.4268C84.7946 71.8456 86.0367 73.0877 87.4555 73.0877Z" fill="#36537B" fill-opacity="0.06"/>
<path d="M107.147 70.4268C107.147 71.8456 105.905 73.0877 104.487 73.0877C103.068 73.0877 101.826 71.8456 101.826 70.4268C101.826 69.0079 103.068 67.7658 104.487 67.7658C105.905 67.7658 107.147 69.0079 107.147 70.4268Z" fill="#36537B" fill-opacity="0.06"/>
<path d="M121.339 73.0877C122.758 73.0877 124 71.8456 124 70.4268C124 69.0079 122.936 67.7658 121.339 67.7658C120.568 67.7658 119.849 68.1322 119.354 68.6952C119.151 68.9239 118.987 69.1855 118.87 69.467C118.747 69.7676 118.678 70.0924 118.678 70.4268C118.678 71.8456 119.92 73.0877 121.339 73.0877Z" fill="#36537B" fill-opacity="0.06"/>
<path d="M5.32186 87.4561C5.32186 88.0503 5.10358 88.6142 4.74671 89.0681C4.52497 89.3505 4.24779 89.5904 3.93596 89.7697C3.55137 89.9898 3.11481 90.1171 2.66093 90.1171C1.24211 90.1171 0 88.875 0 87.4561C0 86.0373 1.24211 84.7952 2.66093 84.7952C4.25818 84.7952 5.32186 85.8597 5.32186 87.4561Z" fill="#36537B" fill-opacity="0.06"/>
<path d="M21.3498 89.503C21.9527 89.0058 22.3511 88.2591 22.3511 87.4561C22.3511 85.8597 21.109 84.7952 19.6902 84.7952C19.1462 84.7952 18.6282 84.978 18.1951 85.2829C17.5005 85.774 17.0293 86.5813 17.0293 87.4561C17.0293 88.875 18.2714 90.1171 19.6902 90.1171C19.8998 90.1171 20.106 90.0902 20.3052 90.0391C20.6898 89.9404 21.0449 89.7533 21.3498 89.503Z" fill="#36537B" fill-opacity="0.06"/>
<path d="M39.2037 87.4561C39.2037 88.875 37.9616 90.1171 36.5427 90.1171C35.1239 90.1171 33.8818 88.875 33.8818 87.4561C33.8818 86.0373 35.1239 84.7952 36.5427 84.7952C38.14 84.7952 39.2037 85.8597 39.2037 87.4561Z" fill="#36537B" fill-opacity="0.06"/>
<path d="M53.5737 90.1171C54.9925 90.1171 56.2346 88.875 56.2346 87.4561C56.2346 85.8597 54.9925 84.7952 53.5737 84.7952C53.1042 84.7952 52.6556 84.9312 52.264 85.1642C51.8483 85.4111 51.4983 85.7671 51.2575 86.1872C51.0393 86.5692 50.9128 87.004 50.9128 87.4561C50.9128 88.875 52.1549 90.1171 53.5737 90.1171Z" fill="#36537B" fill-opacity="0.06"/>
<path d="M73.2639 87.4561C73.2639 88.875 72.0218 90.1171 70.603 90.1171C70.2704 90.1171 69.9464 90.0487 69.6467 89.9257C69.3886 89.82 69.1495 89.6736 68.9347 89.4952C68.337 88.998 67.942 88.2548 67.942 87.4561C67.942 86.7537 68.2469 86.0945 68.7268 85.6086C68.7788 85.5548 68.8342 85.5037 68.8914 85.4552L68.9901 85.3729C69.1894 85.2162 69.4111 85.0854 69.645 84.9883C69.9447 84.8645 70.2686 84.7952 70.603 84.7952C70.9477 84.7952 71.2838 84.8584 71.5939 84.9762L71.7256 85.0317L71.8434 85.0871C71.9352 85.1339 72.0235 85.1858 72.1101 85.243C72.493 85.4977 72.8083 85.852 73.011 86.2859C73.1392 86.5588 73.2223 86.8628 73.2518 87.1937C73.2604 87.2794 73.2639 87.3669 73.2639 87.4561Z" fill="#36537B" fill-opacity="0.06"/>
<path d="M87.4555 90.1171C88.8743 90.1171 90.1165 88.875 90.1165 87.4561C90.1165 86.5692 89.7873 85.8459 89.2225 85.379C89.1585 85.3262 89.0909 85.2768 89.0216 85.23C88.9211 85.1642 88.8154 85.1053 88.7046 85.0533C88.5556 84.984 88.3962 84.9277 88.2264 84.8861C88.1312 84.8619 88.0324 84.8428 87.9302 84.8281C87.7777 84.8064 87.6201 84.7952 87.4555 84.7952C86.0367 84.7952 84.7946 86.0373 84.7946 87.4561C84.7946 88.875 86.0367 90.1171 87.4555 90.1171Z" fill="#36537B" fill-opacity="0.06"/>
<path d="M107.147 87.4561C107.147 88.875 105.905 90.1171 104.487 90.1171C103.986 90.1171 103.508 89.962 103.097 89.6996C102.794 89.5047 102.527 89.2509 102.318 88.9564C102.009 88.5233 101.826 88.0027 101.826 87.4561C101.826 86.0373 103.068 84.7952 104.487 84.7952C104.958 84.7952 105.412 84.913 105.805 85.1295C106.595 85.5626 107.147 86.3907 107.147 87.4561Z" fill="#36537B" fill-opacity="0.06"/>
<path d="M121.339 90.1171C122.758 90.1171 124 88.875 124 87.4561C124 85.8597 122.936 84.7952 121.339 84.7952C119.92 84.7952 118.678 86.0373 118.678 87.4561C118.678 88.875 119.92 90.1171 121.339 90.1171Z" fill="#36537B" fill-opacity="0.06"/>
<path d="M5.32186 104.309C5.32186 105.728 4.07975 106.97 2.66093 106.97C1.24211 106.97 0 105.728 0 104.309C0 102.89 1.24211 101.648 2.66093 101.648C3.46648 101.648 4.13691 101.964 4.60292 102.46C5.06027 102.947 5.32186 103.606 5.32186 104.309Z" fill="#36537B" fill-opacity="0.06"/>
<path d="M19.6902 106.97C21.109 106.97 22.3511 105.728 22.3511 104.309C22.3511 102.89 21.109 101.648 19.6902 101.648C18.9609 101.648 18.2766 101.977 17.7846 102.49C17.5819 102.702 17.4121 102.945 17.2839 103.21C17.1211 103.549 17.0293 103.922 17.0293 104.309C17.0293 105.728 18.2714 106.97 19.6902 106.97Z" fill="#36537B" fill-opacity="0.06"/>
<path d="M39.2037 104.309C39.2037 105.728 37.9616 106.97 36.5427 106.97C35.1239 106.97 33.8818 105.728 33.8818 104.309C33.8818 102.89 35.1239 101.648 36.5427 101.648C37.111 101.648 37.6116 101.805 38.0205 102.071C38.7619 102.553 39.2037 103.394 39.2037 104.309Z" fill="#36537B" fill-opacity="0.06"/>
<path d="M53.5737 106.97C54.9925 106.97 56.2346 105.728 56.2346 104.309C56.2346 103.475 55.805 102.702 55.164 102.207C54.899 102.002 54.5976 101.844 54.2753 101.749C54.0501 101.683 53.8145 101.648 53.5737 101.648C52.8738 101.648 52.2173 101.95 51.7305 102.427C51.2315 102.916 50.9128 103.59 50.9128 104.309C50.9128 105.728 52.1549 106.97 53.5737 106.97Z" fill="#36537B" fill-opacity="0.06"/>
<path d="M73.2639 104.309C73.2639 105.728 72.0218 106.97 70.603 106.97C69.1842 106.97 67.942 105.728 67.942 104.309C67.942 102.89 69.1842 101.648 70.603 101.648C72.0218 101.648 73.2639 102.89 73.2639 104.309Z" fill="#36537B" fill-opacity="0.06"/>
<path d="M87.4555 106.97C88.8743 106.97 90.1165 105.728 90.1165 104.309C90.1165 102.89 89.0528 101.648 87.4555 101.648C86.0367 101.648 84.7946 102.89 84.7946 104.309C84.7946 105.728 86.0367 106.97 87.4555 106.97Z" fill="#36537B" fill-opacity="0.06"/>
<path d="M107.147 104.309C107.147 105.728 105.905 106.97 104.487 106.97C103.717 106.97 103 106.604 102.505 106.044C102.383 105.907 102.276 105.759 102.184 105.601C102.073 105.412 101.985 105.211 101.924 104.999C101.895 104.896 101.872 104.79 101.855 104.683C101.836 104.56 101.826 104.435 101.826 104.309C101.826 102.89 103.068 101.648 104.487 101.648C105.905 101.648 107.147 102.89 107.147 104.309Z" fill="#36537B" fill-opacity="0.06"/>
<path d="M121.339 106.97C122.758 106.97 124 105.728 124 104.309C124 102.89 122.936 101.648 121.339 101.648C119.92 101.648 118.678 102.89 118.678 104.309C118.678 105.728 119.92 106.97 121.339 106.97Z" fill="#36537B" fill-opacity="0.06"/>
<path d="M4.32228 123.384C3.85973 123.765 3.27766 124 2.66093 124C1.24211 124 0 122.758 0 121.339C0 120.684 0.265054 120.067 0.687753 119.593C0.944145 119.306 1.25944 119.071 1.60938 118.911C1.93506 118.762 2.29193 118.678 2.66093 118.678C4.25818 118.678 5.32186 119.92 5.32186 121.339C5.32186 122.142 4.92341 122.888 4.32228 123.384Z" fill="#36537B" fill-opacity="0.06"/>
<path d="M19.6902 124C21.109 124 22.3511 122.758 22.3511 121.339C22.3511 119.92 21.109 118.678 19.6902 118.678C18.2714 118.678 17.0293 119.92 17.0293 121.339C17.0293 122.2 17.4866 122.996 18.164 123.489C18.6023 123.808 19.1324 124 19.6902 124Z" fill="#36537B" fill-opacity="0.06"/>
<path d="M37.2184 123.906C37.0018 123.967 36.7749 124 36.5427 124C35.1239 124 33.8818 122.758 33.8818 121.339C33.8818 119.92 35.1239 118.678 36.5427 118.678C38.14 118.678 39.2037 119.92 39.2037 121.339C39.2037 121.607 39.1604 121.868 39.0789 122.116C39.0426 122.223 39.001 122.328 38.9525 122.43C38.8814 122.581 38.7948 122.726 38.6961 122.862C38.5402 123.077 38.3548 123.269 38.1452 123.433C37.8697 123.647 37.5562 123.811 37.2184 123.906Z" fill="#36537B" fill-opacity="0.06"/>
<path d="M53.5737 124C54.9925 124 56.2346 122.758 56.2346 121.339C56.2346 119.92 54.9925 118.678 53.5737 118.678C52.1549 118.678 50.9128 119.92 50.9128 121.339C50.9128 122.106 51.2766 122.822 51.8344 123.317C52.3091 123.738 52.9223 124 53.5737 124Z" fill="#36537B" fill-opacity="0.06"/>
<path d="M73.2639 121.339C73.2639 122.758 72.0218 124 70.603 124C69.1842 124 67.942 122.758 67.942 121.339C67.942 119.92 69.1842 118.678 70.603 118.678C72.0218 118.678 73.2639 119.92 73.2639 121.339Z" fill="#36537B" fill-opacity="0.06"/>
<path d="M87.4555 124C88.8743 124 90.1165 122.758 90.1165 121.339C90.1165 119.92 89.0528 118.678 87.4555 118.678C86.4092 118.678 85.4581 119.354 85.0319 120.278C84.9505 120.455 84.8881 120.641 84.8483 120.834C84.8137 120.999 84.7946 121.168 84.7946 121.339C84.7946 122.758 86.0367 124 87.4555 124Z" fill="#36537B" fill-opacity="0.06"/>
<path d="M107.147 121.339C107.147 122.758 105.905 124 104.487 124C103.068 124 101.826 122.758 101.826 121.339C101.826 119.92 103.068 118.678 104.487 118.678C105.2 118.678 105.871 118.993 106.359 119.487C106.841 119.974 107.147 120.635 107.147 121.339Z" fill="#36537B" fill-opacity="0.06"/>
<path d="M122.361 123.781C123.305 123.363 124 122.401 124 121.339C124 119.92 122.936 118.678 121.339 118.678C119.92 118.678 118.678 119.92 118.678 121.339C118.678 122.758 119.92 124 121.339 124C121.696 124 122.042 123.921 122.361 123.781Z" fill="#36537B" fill-opacity="0.06"/>
</svg>
