<svg width="414" height="222" viewBox="0 0 414 222" fill="none" xmlns="http://www.w3.org/2000/svg">
<g clip-path="url(#clip0_3_8683)">
<path opacity="0.08" d="M205.28 218.843C264.622 218.843 312.727 170.81 312.727 111.559C312.727 52.3073 264.622 4.27441 205.28 4.27441C145.939 4.27441 97.834 52.3073 97.834 111.559C97.834 170.81 145.939 218.843 205.28 218.843Z" fill="#3B6FA3"/>
<path d="M200.968 215.118C260.309 215.118 308.414 167.085 308.414 107.833C308.414 48.5817 260.309 0.548828 200.968 0.548828C141.627 0.548828 93.5215 48.5817 93.5215 107.833C93.5215 167.085 141.627 215.118 200.968 215.118Z" fill="#F0F7FC"/>
<path opacity="0.31" d="M120.006 161.131L141.207 152.13L130.294 126.504L109.093 135.505L108.554 134.256C107.648 132.124 105.19 131.134 103.055 132.038L98.9784 133.761L98.6765 133.05C98.3314 132.21 97.3609 131.844 96.5414 132.189L91.6457 134.256C90.8046 134.601 90.4379 135.57 90.783 136.388L91.085 137.099L88.7773 138.089L88.4753 137.379C88.1303 136.539 87.1598 136.173 86.3402 136.517L81.4445 138.585C80.6034 138.929 80.2368 139.898 80.5818 140.716L80.8838 141.427L52.1566 153.637C50.0215 154.542 49.0294 156.996 49.9352 159.128L52.6311 165.438L43.0985 169.486L44.7807 173.427C20.9492 183.656 -5.83691 194.919 -31.8251 195.651C-42.9536 195.974 -64.5421 191.861 -84.1249 160.743C-89.4735 152.237 -93.8085 143.15 -97.3454 135.376C-97.9493 134.019 -98.5532 132.576 -99.1786 131.048C-102.22 123.704 -105.649 115.37 -113.672 111.322C-125.145 105.551 -135.368 112.033 -143.607 117.244C-144.599 117.868 -145.591 118.493 -146.561 119.096C-149.192 120.689 -151.888 122.434 -154.498 124.113C-168.258 132.964 -182.492 142.116 -197.912 140.587C-211.844 139.209 -224.267 130.014 -231.168 115.995C-244.971 87.9357 -242.664 59.5318 -224.159 29.2113C-207.854 2.46564 -181.996 -21.2007 -159.178 -42.089C-155.727 -45.2546 -152.471 -48.2263 -149.279 -51.1981C-142.787 -57.2277 -135.476 -64.3987 -130.796 -73.3785C-125.533 -83.5643 -124.692 -94.5468 -128.51 -103.441C-131.788 -111.064 -138.668 -117.567 -148.955 -122.757C-165.583 -131.177 -183.311 -134.708 -201.622 -133.287C-217.495 -132.06 -234.296 -127.042 -251.549 -118.364C-282.39 -102.859 -309.931 -78.6544 -335.099 -54.7943L-353 -37.8252L-347.436 -31.9679L-329.535 -48.937C-304.819 -72.3879 -277.818 -96.1404 -247.926 -111.171C-231.621 -119.376 -215.834 -124.114 -201.018 -125.255C-184.196 -126.547 -167.912 -123.295 -152.622 -115.564C-144.081 -111.236 -138.474 -106.089 -135.95 -100.253C-133.125 -93.6854 -133.901 -85.0286 -138.042 -77.0824C-142.118 -69.2439 -148.869 -62.6544 -154.865 -57.0985C-158.035 -54.1483 -161.291 -51.1765 -164.721 -48.0325C-187.927 -26.7781 -214.238 -2.68108 -231.147 25.0337C-240.528 40.4308 -245.92 55.0526 -247.645 69.7822C-249.587 86.5359 -246.524 103.29 -238.501 119.591C-236.948 122.757 -235.158 125.707 -233.153 128.42C-224.634 139.963 -212.319 147.328 -198.796 148.663C-180.551 150.472 -164.419 140.092 -150.184 130.94C-147.489 129.217 -144.944 127.58 -142.399 126.03C-141.385 125.406 -140.372 124.759 -139.315 124.113C-130.515 118.536 -124.218 115.134 -117.381 118.579C-112.054 121.271 -109.337 127.817 -106.727 134.17C-106.102 135.699 -105.455 137.271 -104.764 138.757C-101.12 146.768 -96.6338 156.178 -91.0263 165.072C-81.7094 179.888 -61.5875 204.609 -31.631 203.748C-4.13312 202.972 23.4294 191.387 47.9079 180.878L49.5901 184.84L59.1227 180.792L61.8833 187.274C62.7891 189.406 65.2477 190.396 67.3829 189.492L96.11 177.303L96.412 178.014C96.757 178.854 97.7275 179.22 98.5471 178.875L103.443 176.808C104.284 176.464 104.651 175.495 104.305 174.676L104.004 173.966L106.311 172.975L106.613 173.686C106.958 174.525 107.929 174.892 108.748 174.547L113.644 172.48C114.485 172.135 114.852 171.166 114.507 170.348L114.205 169.637L118.281 167.914C120.416 167.01 121.408 164.555 120.502 162.423L120.006 161.131Z" fill="#3B6FA3"/>
<path d="M107.842 165.761C108.187 166.601 109.157 166.967 109.977 166.622L114.872 164.555C115.713 164.211 116.08 163.242 115.735 162.423L115.433 161.713L119.509 159.99C121.644 159.085 122.636 156.63 121.731 154.499L109.739 126.353C108.834 124.221 106.375 123.231 104.24 124.135L100.164 125.858L99.8618 125.147C99.5167 124.307 98.5462 123.941 97.7266 124.286L92.8309 126.353C91.9898 126.698 91.6232 127.667 91.9683 128.485L92.2702 129.196L89.9625 130.186L89.6606 129.476C89.3155 128.636 88.345 128.27 87.5255 128.614L82.6298 130.682C81.7887 131.026 81.422 131.995 81.7671 132.813L82.069 133.524L53.3419 145.713C51.2067 146.617 50.2147 149.072 51.1205 151.204L63.1117 179.349C64.0175 181.481 66.4761 182.472 68.6113 181.567L97.3384 169.379L97.6404 170.089C97.9854 170.929 98.956 171.295 99.7755 170.951L104.671 168.884C105.512 168.539 105.879 167.57 105.534 166.752L105.232 166.041L107.54 165.05L107.842 165.761Z" fill="#E2F0FE"/>
<path opacity="0.14" d="M56.6845 165.158L119.789 138.585L107.82 116.232L44.1973 144.119L49.9341 159.128L56.6845 165.158Z" fill="#86B2E8"/>
<path d="M142.39 144.241L131.479 118.616L110.281 127.615L121.193 153.24L142.39 144.241Z" fill="#86B2E8"/>
<path d="M132.056 124.463L130.428 120.638L125.168 122.871L126.797 126.696L132.056 124.463Z" fill="white"/>
<path d="M134.771 130.852L133.143 127.027L127.883 129.26L129.512 133.085L134.771 130.852Z" fill="white"/>
<path d="M137.486 137.242L135.857 133.417L130.598 135.651L132.226 139.475L137.486 137.242Z" fill="white"/>
<path d="M140.215 143.621L138.586 139.796L133.326 142.029L134.955 145.854L140.215 143.621Z" fill="white"/>
<path d="M107.53 165.083L92.2637 129.232L89.9613 130.209L105.228 166.06L107.53 165.083Z" fill="#86B2E8"/>
<path d="M60.0788 173.117L53.5469 157.777L43.2854 162.134L49.8173 177.473L60.0788 173.117Z" fill="#86B2E8"/>
<path d="M-232.938 121.034C-234.943 118.321 -236.733 115.37 -238.286 112.205C-246.288 95.9248 -249.372 79.171 -247.431 62.3958C-245.727 47.6662 -240.335 33.0228 -230.932 17.6473C-214.023 -10.0675 -187.712 -34.1644 -164.506 -55.4189C-161.055 -58.5629 -157.82 -61.5347 -154.65 -64.4849C-148.654 -70.0407 -141.925 -76.6518 -137.827 -84.4688C-133.686 -92.3934 -132.91 -101.072 -135.735 -107.64C-138.237 -113.476 -143.845 -118.622 -152.407 -122.951C-167.698 -130.682 -183.981 -133.933 -200.803 -132.641C-215.619 -131.5 -231.406 -126.762 -247.711 -118.558C-277.624 -103.527 -304.626 -79.7743 -329.342 -56.3233L-347.242 -39.3542L-352.807 -45.2116L-334.906 -62.1807C-309.737 -86.0623 -282.196 -110.267 -251.377 -125.772C-234.124 -134.45 -217.345 -139.468 -201.45 -140.695C-183.139 -142.116 -165.411 -138.563 -148.783 -130.165C-138.496 -124.953 -131.594 -118.45 -128.316 -110.827C-124.499 -101.912 -125.34 -90.9506 -130.667 -80.7433C-135.347 -71.7635 -142.658 -64.5925 -149.15 -58.5629C-152.342 -55.5912 -155.598 -52.6194 -159.049 -49.4539C-181.867 -28.5655 -207.726 -4.87767 -224.03 21.8465C-242.535 52.1884 -244.821 80.5708 -231.04 108.63C-224.138 122.649 -211.716 131.844 -197.783 133.222C-182.342 134.751 -168.129 125.599 -154.369 116.749C-151.76 115.069 -149.064 113.325 -146.433 111.731C-145.462 111.128 -144.47 110.504 -143.478 109.879C-135.261 104.668 -125.017 98.1644 -113.543 103.957C-105.499 108.006 -102.069 116.339 -99.0284 123.683C-98.403 125.212 -97.7991 126.654 -97.1952 128.011C-93.6582 135.785 -89.3233 144.872 -83.9747 153.379C-64.3919 184.496 -42.8034 188.609 -31.6748 188.286C-4.99652 187.532 22.5445 175.688 46.8504 165.222L50.3658 163.715L53.5577 171.144L50.0423 172.652C25.0678 183.397 -3.20645 195.564 -31.4592 196.361C-61.3941 197.223 -81.5161 172.501 -90.8545 157.685C-96.4619 148.792 -100.948 139.381 -104.593 131.37C-105.261 129.885 -105.908 128.313 -106.555 126.784C-109.165 120.452 -111.882 113.884 -117.209 111.193C-124.068 107.747 -130.344 111.15 -139.143 116.727C-140.178 117.395 -141.213 118.041 -142.227 118.644C-144.772 120.194 -147.317 121.831 -150.013 123.553C-164.247 132.706 -180.379 143.085 -198.625 141.276C-212.125 139.963 -224.419 132.576 -232.938 121.034Z" fill="#86B2E8"/>
<path opacity="0.31" d="M712.945 218.003C699.962 218.068 683.011 209.368 674.427 189.729C663.838 165.503 669.359 139.424 674.664 114.186C675.074 112.27 675.484 110.331 675.872 108.436L676.174 106.972C682.213 77.7929 688.467 47.6017 688.575 17.2167C688.64 -1.32443 684.93 -20.2532 678.158 -36.0594C670.049 -54.9882 657.734 -68.9209 642.551 -76.4149C628.295 -83.4351 612.293 -84.1027 599.741 -78.2453C588.569 -73.0124 580.977 -63.365 577.829 -50.3367C572.609 -28.8023 576.88 -6.32042 580.977 15.4293C581.517 18.2288 582.034 20.9852 582.53 23.7416C582.811 25.2275 583.069 26.7349 583.35 28.2423C589.108 59.5964 595.643 95.1281 574.68 121.292C568.274 129.303 561.093 133.459 552.725 134.041C530.877 135.548 505.924 111.903 485.889 92.9101C478.081 85.5022 471.331 79.1065 465.594 74.9719C429.426 48.7861 397.076 40.3016 366.818 49.1091L364.337 43.7686L353.015 48.9799L350.729 44.0055C349.866 42.1104 347.623 41.2921 345.725 42.1535L316.761 55.5048L316.2 54.2774C315.747 53.3083 314.582 52.8776 313.612 53.3299L285.036 66.5089C284.065 66.9611 283.634 68.124 284.087 69.093L284.648 70.3205L272.096 76.1133C270.198 76.9746 269.378 79.2142 270.241 81.1092L274.015 89.2492L245.309 102.557C243.002 103.613 241.988 106.348 243.066 108.652C244.123 110.956 246.862 111.968 249.17 110.891L277.875 97.6046L281.693 105.852C282.556 107.747 284.798 108.566 286.696 107.704L299.248 101.911L299.809 103.139C300.262 104.108 301.427 104.539 302.397 104.086L330.973 90.9074C331.944 90.4552 332.375 89.2923 331.922 88.3233L331.362 87.0958L360.326 73.7445C362.224 72.8831 363.043 70.6435 362.181 68.7485L360.455 65.0446L359.873 63.7956L371.196 58.5843L368.435 52.5977C397.335 44.4146 428.434 52.7484 463.33 78.0513C468.851 82.0567 475.515 88.3663 483.236 95.6665C503.832 115.177 529.454 139.446 552.983 137.831C562.344 137.185 570.647 132.426 577.678 123.661C599.719 96.1402 593.033 59.6825 587.124 27.5317C586.844 26.0242 586.563 24.5384 586.304 23.0525C585.808 20.2961 585.269 17.5182 584.752 14.7187C580.719 -6.64343 576.535 -28.7162 581.56 -49.4323C584.428 -61.2977 591.286 -70.0407 601.38 -74.7567C612.896 -80.1403 627.648 -79.4728 640.869 -72.9694C655.232 -65.9061 666.922 -52.6194 674.664 -34.552C681.242 -19.198 684.822 -0.80761 684.779 17.2167C684.671 47.2141 678.46 77.2115 672.464 106.218L672.162 107.683C671.774 109.599 671.364 111.494 670.955 113.432C665.52 139.252 659.891 165.933 670.955 191.279C674.643 199.721 680.595 207.365 687.712 212.835C695.476 218.8 704.232 221.901 712.989 221.858L712.945 218.003Z" fill="#3B6FA3"/>
<path d="M351.225 36.4251L362.677 61.1897C363.54 63.0847 362.72 65.3243 360.823 66.1857L287.193 100.124C285.295 100.985 283.052 100.167 282.189 98.2719L270.737 73.5074C269.875 71.6124 270.694 69.3728 272.592 68.5114L346.222 34.5732C348.12 33.7118 350.363 34.5301 351.225 36.4251Z" fill="#E2F0FE"/>
<path opacity="0.14" d="M358.321 48.8075L271.256 87.9355L264.182 66.2288L295.087 43.2301L354.267 27.0146L358.321 48.8075Z" fill="#86B2E8"/>
<path d="M316.719 46.7185L332.463 80.7644C332.916 81.7334 332.485 82.8963 331.514 83.3485L302.938 96.5275C301.967 96.9798 300.803 96.5491 300.35 95.58L284.606 61.5341C284.153 60.5651 284.584 59.4022 285.555 58.95L314.131 45.771C315.102 45.2972 316.266 45.7279 316.719 46.7185Z" fill="#86B2E8"/>
<path d="M328.924 79.3003C329.247 80.0109 328.945 80.8292 328.234 81.1522L303.41 92.6085C302.698 92.9315 301.879 92.6301 301.555 91.9194C301.232 91.2088 301.534 90.3905 302.245 90.0675L327.069 78.6327C327.759 78.2882 328.6 78.6112 328.924 79.3003Z" fill="#E2F0FE"/>
<path d="M326.25 73.5074C326.573 74.218 326.272 75.0363 325.56 75.3593L300.736 86.7941C300.025 87.1171 299.205 86.8156 298.881 86.105C298.558 85.3944 298.86 84.5761 299.572 84.253L324.395 72.8183C325.085 72.4953 325.926 72.7967 326.25 73.5074Z" fill="#E2F0FE"/>
<path d="M323.576 67.7149C323.9 68.4255 323.598 69.2438 322.886 69.5669L298.062 81.0016C297.351 81.3246 296.531 81.0232 296.208 80.3125C295.884 79.6019 296.186 78.7836 296.898 78.4606L321.721 67.0258C322.412 66.7028 323.253 67.0042 323.576 67.7149Z" fill="#E2F0FE"/>
<path d="M320.881 61.9221C321.204 62.6327 320.902 63.451 320.191 63.774L295.367 75.2303C294.655 75.5534 293.836 75.2519 293.512 74.5412C293.189 73.8306 293.491 73.0123 294.202 72.6893L319.026 61.2545C319.738 60.9099 320.557 61.2114 320.881 61.9221Z" fill="#E2F0FE"/>
<path d="M318.207 56.1294C318.53 56.8401 318.228 57.6584 317.517 57.9814L292.693 69.4162C291.982 69.7392 291.162 69.4377 290.838 68.7271C290.515 68.0164 290.817 67.1981 291.529 66.8751L316.352 55.4403C317.042 55.1173 317.883 55.4188 318.207 56.1294Z" fill="#E2F0FE"/>
<path d="M315.531 50.3365C315.855 51.0471 315.553 51.8654 314.841 52.1884L290.017 63.6232C289.306 63.9462 288.486 63.6447 288.163 62.9341C287.839 62.2235 288.141 61.4052 288.853 61.0821L313.676 49.6474C314.367 49.3244 315.208 49.6258 315.531 50.3365Z" fill="#E2F0FE"/>
<path d="M274.555 81.7334L278.415 90.0672L249.688 103.311C247.38 104.366 244.641 103.376 243.584 101.071C242.528 98.7671 243.52 96.0323 245.827 94.9771L274.555 81.7334Z" fill="#86B2E8"/>
<path d="M353.53 41.4049L360.391 56.2441L371.708 51.0277L364.848 36.1884L353.53 41.4049Z" fill="#86B2E8"/>
<path d="M363.475 42.735C394.833 32.0108 428.391 40.0647 466.09 67.3919C471.827 71.548 478.577 77.9437 486.385 85.33C506.42 104.323 531.373 127.947 553.221 126.461C561.589 125.879 568.749 121.723 575.176 113.712C596.117 87.5481 589.604 52.0163 583.846 20.6622C583.565 19.1548 583.285 17.6474 583.026 16.1615C582.53 13.4267 582.012 10.6487 581.473 7.84925C577.354 -13.9005 573.105 -36.4039 578.324 -57.9168C581.473 -70.9451 589.065 -80.5925 600.237 -85.8254C612.788 -91.6827 628.791 -91.0152 643.047 -83.995C658.23 -76.5225 670.566 -62.5682 678.654 -43.6395C685.426 -27.8117 689.135 -8.90452 689.071 9.6366C688.963 40.0216 682.708 70.2129 676.67 99.392L676.368 100.856C675.98 102.773 675.57 104.689 675.16 106.606C669.855 131.823 664.333 157.901 674.923 182.149C683.507 201.788 700.437 210.509 713.441 210.423L713.463 214.256C704.685 214.3 695.951 211.177 688.187 205.234C681.069 199.764 675.117 192.119 671.429 183.678C660.365 158.332 665.994 131.629 671.429 105.831C671.839 103.914 672.249 101.998 672.637 100.081L672.939 98.6167C678.956 69.6099 685.167 39.6125 685.253 9.61507C685.318 -8.40923 681.716 -26.7996 675.139 -42.1536C667.396 -60.221 655.707 -73.5077 641.343 -80.571C628.123 -87.0744 613.371 -87.7419 601.854 -82.3583C591.761 -77.6423 584.924 -68.8778 582.034 -57.0339C577.009 -36.3178 581.193 -14.2235 585.226 7.11708C585.765 9.91655 586.283 12.6945 586.779 15.4509C587.059 16.9368 587.318 18.4226 587.598 19.93C593.508 52.0809 600.193 88.5386 578.152 116.06C571.121 124.824 562.818 129.605 553.458 130.229C529.928 131.844 504.307 107.554 483.71 88.0649C475.989 80.7647 469.325 74.4336 463.804 70.4498C427.183 43.9194 394.768 36.0378 364.682 46.3312L363.475 42.735Z" fill="#86B2E8"/>
<path d="M194.541 153.594C194.908 152.754 195.404 152.022 196.03 151.376C196.655 150.751 197.388 150.256 198.251 149.89C199.092 149.524 199.998 149.352 200.968 149.352C201.939 149.352 202.845 149.524 203.686 149.89C204.527 150.256 205.26 150.751 205.907 151.376C206.533 152 207.029 152.733 207.395 153.594C207.762 154.434 207.935 155.338 207.935 156.307C207.935 157.276 207.762 158.181 207.395 159.021C207.029 159.86 206.533 160.593 205.907 161.239C205.282 161.863 204.549 162.358 203.686 162.725C202.845 163.091 201.939 163.263 200.968 163.263C199.998 163.263 199.092 163.091 198.251 162.725C197.41 162.358 196.677 161.863 196.03 161.239C195.404 160.614 194.908 159.882 194.541 159.021C194.175 158.181 194.002 157.276 194.002 156.307C194.002 155.338 194.175 154.434 194.541 153.594ZM211.126 44.3284C211.126 40.3661 210.372 37.3943 208.862 35.4132C207.352 33.432 204.721 32.4414 200.99 32.4414C197.259 32.4414 194.628 33.432 193.118 35.4132C191.608 37.3943 190.854 40.3661 190.854 44.3284V80.0324L196.094 133.222V133.093C196.332 134.859 196.935 136.065 197.906 136.732C198.876 137.379 199.912 137.702 200.99 137.702C202.068 137.702 203.082 137.379 204.031 136.754C204.98 136.13 205.584 134.945 205.821 133.222L211.148 80.0324V44.3284H211.126Z" fill="#86B2E8"/>
</g>
<defs>
<clipPath id="clip0_3_8683">
<rect width="414" height="222" fill="white"/>
</clipPath>
</defs>
</svg>
