<svg width="88" height="20" viewBox="0 0 88 20" fill="none" xmlns="http://www.w3.org/2000/svg">
<path d="M0.227875 15.7964V20H13.347C14.1283 20 14.8227 19.8139 15.4304 19.4417C16.0598 19.0476 16.5915 18.555 17.0255 17.9639C17.4596 17.3727 17.7959 16.7269 18.0347 16.0263C18.2734 15.3038 18.3928 14.6141 18.3928 13.9573C18.3928 13.1472 18.2517 12.381 17.9696 11.6585C17.6875 10.9141 17.286 10.2682 16.7651 9.72085C16.2442 9.1516 15.6257 8.70279 14.9095 8.37438C14.1934 8.04598 13.4012 7.88177 12.5331 7.88177H5.85964C5.72943 7.88177 5.58835 7.82705 5.43645 7.71757C5.30623 7.60809 5.17602 7.46581 5.04581 7.29064C4.93728 7.11548 4.83962 6.92939 4.75282 6.73235C4.68772 6.5353 4.65516 6.33826 4.65516 6.14121C4.65516 5.70332 4.76369 5.2764 4.9807 4.86043C5.19771 4.42254 5.50156 4.20361 5.8922 4.20361H18.1649V0H6.08752C5.21944 0 4.41642 0.153243 3.67856 0.45977C2.94069 0.766297 2.30045 1.19323 1.75789 1.74056C1.21534 2.28789 0.781286 2.9447 0.45575 3.711C0.151916 4.45538 0 5.26548 0 6.14121C0 6.90751 0.130214 7.65189 0.390643 8.37438C0.651072 9.09688 1.02001 9.73181 1.49747 10.2791C1.99662 10.8265 2.59342 11.2644 3.28791 11.5928C3.9824 11.9212 4.76369 12.0854 5.63177 12.0854H12.1425C12.6199 12.0854 12.9997 12.2934 13.2819 12.7094C13.564 13.1034 13.7051 13.5413 13.7051 14.023C13.7051 14.22 13.6508 14.428 13.5423 14.647C13.4555 14.8659 13.3361 15.0629 13.1842 15.2381C13.054 15.3913 12.8912 15.5227 12.6959 15.6322C12.5223 15.7417 12.3378 15.7964 12.1425 15.7964H0.227875ZM19.8409 0V20H24.9193V0H19.8409ZM26.5833 0V20H31.6291V4.53202H38.563C39.2576 4.53202 39.7133 4.69622 39.9302 5.02463C40.1471 5.33116 40.2558 5.81281 40.2558 6.46962V20H45.3667V5.68145C45.3667 4.93707 45.258 4.22549 45.0411 3.5468C44.8243 2.84618 44.4877 2.23317 44.032 1.70772C43.5762 1.18227 42.9903 0.766297 42.2741 0.45977C41.5579 0.153243 40.7005 0 39.7024 0H33.2893L31.6291 2.10181V0H26.5833Z" fill="white"/>
<path d="M46.6207 5.6486C46.6207 4.83855 46.7627 4.08321 47.0474 3.38259C47.3535 2.68198 47.7802 2.09085 48.3276 1.6092C48.8745 1.10562 49.5199 0.711535 50.2642 0.426929C51.0298 0.142323 51.8615 0 52.7588 0H60.7678C61.6869 0 62.5182 0.142323 63.2625 0.426929C64.0281 0.711535 64.6739 1.10562 65.1991 1.6092C65.746 2.09085 66.1616 2.68198 66.4464 3.38259C66.7525 4.08321 66.9059 4.83855 66.9059 5.6486C66.9059 6.4149 66.7746 7.14832 66.512 7.84893C66.2494 8.52763 65.8884 9.14068 65.4288 9.68801C65.8662 10.3448 66.2273 10.9578 66.512 11.5271C66.7964 12.0744 66.9387 12.7312 66.9387 13.4975C66.9387 14.3076 66.8075 15.1067 66.5449 15.8949C66.2823 16.6612 65.8884 17.3509 65.3632 17.9639C64.8598 18.5769 64.2144 19.0695 63.4266 19.4417C62.6606 19.8139 61.7743 20 60.7678 20H52.7588C51.7302 20 50.8329 19.8139 50.0672 19.4417C49.3012 19.0695 48.6558 18.5769 48.1306 17.9639C47.6272 17.3509 47.2444 16.6612 46.9818 15.8949C46.7192 15.1067 46.5879 14.3076 46.5879 13.4975C46.5879 12.7312 46.7081 12.0744 46.949 11.5271C47.2115 10.9578 47.5833 10.3448 48.065 9.68801C47.102 8.59331 46.6207 7.24684 46.6207 5.6486ZM62.1793 13.4647C62.1793 13.0268 62.0369 12.6108 61.7526 12.2167C61.4678 11.8008 61.085 11.5709 60.6037 11.5271H52.8901C52.3867 11.5709 51.9928 11.8008 51.7084 12.2167C51.4237 12.6108 51.2817 13.0268 51.2817 13.4647C51.2817 13.6617 51.3145 13.8807 51.3802 14.1215C51.4458 14.3404 51.5443 14.5594 51.6756 14.7783C51.8069 14.9754 51.9599 15.1396 52.1351 15.2709C52.3099 15.4023 52.5069 15.468 52.726 15.468H60.735C60.9537 15.468 61.1507 15.4023 61.3259 15.2709C61.5006 15.1396 61.6541 14.9754 61.7854 14.7783C61.9167 14.5594 62.0152 14.3404 62.0808 14.1215C62.1465 13.8807 62.1793 13.6617 62.1793 13.4647ZM51.2817 5.6486C51.2817 6.04269 51.413 6.39298 51.6756 6.69951C51.9599 7.00603 52.3321 7.18116 52.7916 7.22496H60.735C61.1724 7.18116 61.5228 7.00603 61.7854 6.69951C62.048 6.39298 62.1793 6.04269 62.1793 5.6486C62.1793 5.34208 62.048 5.07935 61.7854 4.86043C61.5228 4.6415 61.1724 4.53202 60.735 4.53202H52.726C52.2882 4.53202 51.9382 4.6415 51.6756 4.86043C51.413 5.07935 51.2817 5.34208 51.2817 5.6486ZM67.6818 5.6486C67.6818 4.83855 67.8242 4.08321 68.1085 3.38259C68.415 2.68198 68.8417 2.09085 69.3886 1.6092C69.9356 1.10562 70.5814 0.711535 71.3253 0.426929C72.0913 0.142323 72.9226 0 73.8199 0H81.8289C82.748 0 83.5797 0.142323 84.3236 0.426929C85.0896 0.711535 85.735 1.10562 86.2602 1.6092C86.8071 2.09085 87.2231 2.68198 87.5075 3.38259C87.814 4.08321 87.967 4.83855 87.967 5.6486C87.967 6.4149 87.8357 7.14832 87.5731 7.84893C87.3105 8.52763 86.9495 9.14068 86.4899 9.68801C86.9277 10.3448 87.2888 10.9578 87.5731 11.5271C87.8575 12.0744 87.9998 12.7312 87.9998 13.4975C87.9998 14.3076 87.8685 15.1067 87.6059 15.8949C87.3434 16.6612 86.9495 17.3509 86.4243 17.9639C85.9208 18.5769 85.2754 19.0695 84.4877 19.4417C83.7216 19.8139 82.8354 20 81.8289 20H73.8199C72.7913 20 71.8943 19.8139 71.1283 19.4417C70.3623 19.0695 69.7169 18.5769 69.1917 17.9639C68.6883 17.3509 68.3055 16.6612 68.0429 15.8949C67.7803 15.1067 67.649 14.3076 67.649 13.4975C67.649 12.7312 67.7692 12.0744 68.01 11.5271C68.2726 10.9578 68.6448 10.3448 69.1261 9.68801C68.1631 8.59331 67.6818 7.24684 67.6818 5.6486ZM83.2404 13.4647C83.2404 13.0268 83.098 12.6108 82.8137 12.2167C82.5293 11.8008 82.1461 11.5709 81.6648 11.5271H73.9512C73.4477 11.5709 73.0539 11.8008 72.7695 12.2167C72.4852 12.6108 72.3428 13.0268 72.3428 13.4647C72.3428 13.6617 72.3756 13.8807 72.4413 14.1215C72.5069 14.3404 72.6054 14.5594 72.7367 14.7783C72.868 14.9754 73.021 15.1396 73.1962 15.2709C73.3714 15.4023 73.5684 15.468 73.7871 15.468H81.7961C82.0148 15.468 82.2117 15.4023 82.3869 15.2709C82.5621 15.1396 82.7152 14.9754 82.8465 14.7783C82.9778 14.5594 83.0762 14.3404 83.1419 14.1215C83.2075 13.8807 83.2404 13.6617 83.2404 13.4647ZM72.3428 5.6486C72.3428 6.04269 72.4741 6.39298 72.7367 6.69951C73.021 7.00603 73.3932 7.18116 73.8527 7.22496H81.7961C82.2339 7.18116 82.5839 7.00603 82.8465 6.69951C83.1091 6.39298 83.2404 6.04269 83.2404 5.6486C83.2404 5.34208 83.1091 5.07935 82.8465 4.86043C82.5839 4.6415 82.2339 4.53202 81.7961 4.53202H73.7871C73.3493 4.53202 72.9993 4.6415 72.7367 4.86043C72.4741 5.07935 72.3428 5.34208 72.3428 5.6486Z" fill="#D62828"/>
</svg>
